<svg id="Artwork_9" data-name="Artwork 9" xmlns="http://www.w3.org/2000/svg" xmlns:xlink="http://www.w3.org/1999/xlink" width="141.287" height="15.618" viewBox="0 0 141.287 15.618">
  <defs>
    <clipPath id="clip-path">
      <rect id="Rectangle_3556" data-name="Rectangle 3556" width="141.287" height="15.618" fill="#fff"/>
    </clipPath>
  </defs>
  <g id="Group_10516" data-name="Group 10516" transform="translate(0 0)">
    <path id="Path_47590" data-name="Path 47590" d="M-465.435-920.047l-5.034,6.591-5-6.591h-2.312v15.26h2.134v-12.032l5.177,6.837,5.211-6.837v12.032h2.134v-15.26Z" transform="translate(521.875 920.227)" fill="#fff"/>
    <rect id="Rectangle_3554" data-name="Rectangle 3554" width="2.133" height="15.26" transform="translate(61.95 0.18)" fill="#fff"/>
    <g id="Group_10515" data-name="Group 10515">
      <g id="Mask_Group_10514" data-name="Mask Group 10514" clip-path="url(#clip-path)">
        <path id="Path_47591" data-name="Path 47591" d="M-318.747-912.585h3.408a3.706,3.706,0,0,0,2.72-.773,2.805,2.805,0,0,0,.732-2.008q0-2.8-3.541-2.8h-3.318Zm-2.133,7.8v-15.26h5.631a6.19,6.19,0,0,1,4.027,1.2,4.157,4.157,0,0,1,1.469,3.416,4.329,4.329,0,0,1-.978,2.978,4.987,4.987,0,0,1-2.441,1.517l4.055,6.152h-2.514l-3.686-5.809h-3.43v5.809Z" transform="translate(388.163 920.227)" fill="#fff"/>
        <path id="Path_47592" data-name="Path 47592" d="M-226.9-917.389l2.425,6.334h-4.85Zm-1.027-2.658-6.089,15.26h2.29l1.642-4.279h6.368l1.642,4.279h2.29l-6.066-15.26Z" transform="translate(314.135 920.226)" fill="#fff"/>
        <path id="Path_47593" data-name="Path 47593" d="M-115.908-920.047V-907.9l-8.535-12.144h-2.425v15.26h2.134v-12.222l8.6,12.222h2.357v-15.26Z" transform="translate(222.824 920.227)" fill="#fff"/>
        <path id="Path_47594" data-name="Path 47594" d="M-21.689-920.047v1.988h5.116v13.272h2.134v-13.272h5.149v-1.988Z" transform="translate(133.189 920.227)" fill="#fff"/>
        <rect id="Rectangle_3555" data-name="Rectangle 3555" width="2.134" height="15.26" transform="translate(126.353 0.18)" fill="#fff"/>
        <path id="Path_47595" data-name="Path 47595" d="M110.464-916.959a4.074,4.074,0,0,1,1.3-3.046,5.629,5.629,0,0,1,4.031-1.255,8.761,8.761,0,0,1,3.933.929v2.074a6.965,6.965,0,0,0-3.676-1.015q-3.457,0-3.456,2.313a1.341,1.341,0,0,0,.608,1.083,4.8,4.8,0,0,0,1.5.739q.892.276,1.955.717a18.94,18.94,0,0,1,1.957.936,4.143,4.143,0,0,1,1.5,1.455,4.1,4.1,0,0,1,.6,2.233,3.6,3.6,0,0,1-1.465,3.054,6.608,6.608,0,0,1-4.047,1.1,10.3,10.3,0,0,1-4.542-1.093v-2.193a8.255,8.255,0,0,0,4.351,1.3q3.558,0,3.568-2.166a2.25,2.25,0,0,0-.6-1.579,3.463,3.463,0,0,0-1.494-.947l-1.963-.666q-1.069-.372-1.961-.762a3.648,3.648,0,0,1-1.5-1.212,3.276,3.276,0,0,1-.606-2" transform="translate(20.567 921.26)" fill="#fff"/>
        <path id="Path_47596" data-name="Path 47596" d="M-765.848-903.837a15.46,15.46,0,0,1,5.733,3.547c1.523-.852,3.03-1.735,4.537-2.568q.775-.429,1.547-.808c-.517-.456-1.037-.91-1.581-1.33a12.744,12.744,0,0,0-6.972-2.7,18.145,18.145,0,0,0-13.557,5.019,12.951,12.951,0,0,1,10.293-1.157" transform="translate(776.141 909.74)" fill="#fff"/>
        <path id="Path_47597" data-name="Path 47597" d="M-648.088-869.539a10.936,10.936,0,0,1-2.4-1.507c-1.642.911-3.264,1.867-4.885,2.762-.375.207-.75.4-1.124.6a16.226,16.226,0,0,0,1.375.929c6.107,3.659,14.524,1.649,19.476-3.152-3.76,2.313-8.506,2.1-12.442.372" transform="translate(674.179 878.467)" fill="#fff"/>
        <path id="Path_47598" data-name="Path 47598" d="M-727.132-903.832A29,29,0,0,0-743.307-900c-5.7,3.149-11.416,7.04-17.932,7.134a29,29,0,0,0,16.176-3.833c5.7-3.149,11.416-7.04,17.932-7.134" transform="translate(763.442 906.443)" fill="#fff"/>
      </g>
    </g>
  </g>
</svg>
